<svg id="EON-logo" xmlns="http://www.w3.org/2000/svg" width="128.286" height="60" viewBox="0 0 128.286 60">
      <path id="Path_117" data-name="Path 117" d="M122.149,13.415c-13.07,0-16.908,7.351-17.809,9.54-2.119,5.145-4.7,10.572-4.7,13.533,0,6.62,7.882,6.579,11.418,6.579,7.237,0,13.648.062,18.447-9.164,1.148-2.206,4.719-10.15,4.719-13.768C134.225,14.261,127.541,13.415,122.149,13.415ZM117.733,35.5a3.969,3.969,0,0,1-2.867.751c-1.4,0-2.444.1-2.444-1.409,0-2.2,1.517-10.129,3.806-13.3.611-.846,1.96-.987,2.867-.987,2.3,0,2.383.423,2.383,1.641C121.479,23.913,119.743,33.406,117.733,35.5Z" transform="translate(-46.589 -6.272)" fill="#ea1c0a"/>
      <path id="Path_118" data-name="Path 118" d="M13.721,24.388s8.038.235,12.03.235h3.994c5.685,0,10.808-1.727,10.808-10.057C40.552,10.668,39.639,0,32.94,0,25.5,0,0,9.953,0,23.167c0,7.885,10.845,14.426,22.884,14.426,8,0,17.527-4.632,17.527-7.565,0-1.5-3.891-1.926-6.531-1.926-2.719,0-6.955.488-6.955.488a9.348,9.348,0,0,1-6.579,2.848c-4.681,0-7.753-4.1-7.753-6.813C12.594,24.247,13.076,24.375,13.721,24.388Zm2.35-7.472c.762-.762,8.361-7.377,12.687-7.377,1.329,0,1.409,2.435,1.409,4.135,0,3.179-.313,3.759-3.759,3.759H16.682C15.929,17.433,15.507,17.481,16.071,16.916Z" fill="#ea1c0a"/>
      <path id="Path_119" data-name="Path 119" d="M86.263,31.861c-2.059,0-4.144.29-5.31,2.96A10.914,10.914,0,0,0,79.872,38.2c0,1.467.889,2.4,3.477,2.4,1.726,0,4.176-.373,5.11-2.679a16.7,16.7,0,0,0,1.187-3.712C89.646,32.587,88.008,31.861,86.263,31.861Z" transform="translate(-37.346 -14.897)" fill="#ea1c0a"/>
      <path id="Path_120" data-name="Path 120" d="M194.3,26.655c0,2.159-3.535,12.155-4.467,14.931a.824.824,0,0,0,.264.945,8.9,8.9,0,0,0,5.257,1.319c1.369,0,2.426-.206,2.978-1.657.839-2.209,5.953-16.928,5.953-21.227,0-2.561-1.211-5.874-6.581-5.874-6.108,0-13.016,6.531-16.822,6.531-2.255,0-2.333-2.4-2.333-3.1,0-1.631-.007-1.617-.007-1.617a10.136,10.136,0,0,0-3.91-.592,13.652,13.652,0,0,0-2.636.274c-.642.1-.764.335-.889.619a213.7,213.7,0,0,0-8.035,22.415l-.449,1.827c-.159.645-.133.95.4,1.227a9.275,9.275,0,0,0,3.666.987,4.183,4.183,0,0,0,3.336-1.081c2.442-2.729,15.588-18,22.743-18C193.948,24.584,194.3,25.473,194.3,26.655Z" transform="translate(-75.997 -7.057)" fill="#ea1c0a"/>
      <path id="Path_121" data-name="Path 121" d="M174.157,89.275h-4.046v12.268h4.046c4.192,0,6.17-1.905,6.17-6.134S178.35,89.275,174.157,89.275Zm-.181,10h-1.053V91.544h1.053c2.541,0,3.448,1.016,3.448,3.865C177.424,98.349,176.517,99.275,173.976,99.275Z" transform="translate(-79.539 -41.742)" fill="#ea1c0a"/>
      <path id="Path_122" data-name="Path 122" d="M193.871,97.9h-.018V96.615h-2.468v8.275h2.577v-5.1a1.59,1.59,0,0,1,1.379-.708,6.22,6.22,0,0,1,1.434.182l.163-2.722a3.566,3.566,0,0,0-.907-.109A2.418,2.418,0,0,0,193.871,97.9Z" transform="translate(-89.486 -45.089)" fill="#ea1c0a"/>
      <path id="Path_123" data-name="Path 123" d="M204.654,88.867a1.344,1.344,0,0,0-1.488,1.451,1.3,1.3,0,0,0,1.488,1.416,1.334,1.334,0,0,0,1.47-1.416A1.382,1.382,0,0,0,204.654,88.867Z" transform="translate(-94.994 -41.552)" fill="#ea1c0a"/>
      <rect id="Rectangle_9184" data-name="Rectangle 9184" width="2.577" height="8.275" transform="translate(108.407 51.525)" fill="#ea1c0a"/>
      <path id="Path_124" data-name="Path 124" d="M216.338,96.774l-1.742,5.771-1.76-5.771h-2.758l2.976,8.275h3.1l2.922-8.275Z" transform="translate(-98.226 -45.249)" fill="#ea1c0a"/>
      <path id="Path_125" data-name="Path 125" d="M230.738,96.433c-2.577,0-3.938,2.014-3.938,4.319,0,2.523,1.288,4.337,4.228,4.337a4.5,4.5,0,0,0,3.1-1.216l-1.179-1.652a3.272,3.272,0,0,1-1.924.708c-1,0-1.579-.49-1.633-1.343h4.791a7.288,7.288,0,0,0,.145-1.506A3.353,3.353,0,0,0,230.738,96.433Zm1.216,3.357H229.4a1.291,1.291,0,0,1,1.343-1.325,1.1,1.1,0,0,1,1.234,1.106A1.243,1.243,0,0,1,231.954,99.79Z" transform="translate(-106.045 -45.089)" fill="#ea1c0a"/>
    </svg>