<svg width="160" height="32" viewBox="0 0 160 32" fill="none" xmlns="http://www.w3.org/2000/svg">
<path d="M48.6787 8.01355C43.9123 8.01355 40.0493 11.8765 40.0493 16.643V31.6781H45.1458V17.5815C45.1458 14.989 47.2442 12.8888 49.8367 12.8888H52.8976C55.4901 12.8888 57.5903 14.989 57.5903 17.5815V26.6332C57.5903 29.447 59.873 31.7297 62.6886 31.7297V16.6411C62.6886 11.8747 58.8257 8.01171 54.0574 8.01171H48.6769L48.6787 8.01355ZM80.5449 8.01355V12.8538H87.9684V31.6781H93.1036V12.8538H100.529V8.01355H80.5449ZM120.618 8.01355L114.696 17.5834L108.773 8.01355H103.252L112.322 22.265V31.7315C114.915 31.7315 117.017 29.6295 117.017 27.037V22.2834L125.971 8.0154H120.618V8.01355ZM0 31.6781H5.07439V13.0345C5.07439 10.2318 2.80272 7.96008 0 7.96008V31.6781ZM69.9185 13.0345V31.6781H74.9948V7.96008C72.192 7.96008 69.9185 10.2318 69.9185 13.0345ZM15.461 20.104V19.5877C15.461 15.8151 18.5274 12.7468 22.3019 12.7468H22.9011C26.6719 12.7468 29.742 15.8151 29.742 19.5877V20.104C29.742 23.8747 26.6719 26.9429 22.9011 26.9429H22.3019C18.5293 26.9429 15.461 23.8747 15.461 20.104ZM22.3019 7.79966C15.8022 7.79966 10.5139 13.0861 10.5139 19.5858V20.1021C10.5139 26.6037 15.8022 31.8901 22.3019 31.8901H22.9011C29.4027 31.8901 34.691 26.6037 34.691 20.1021V19.5858C34.691 13.0861 29.4027 7.79966 22.9011 7.79966H22.3019ZM141.847 1.43639C142.802 1.49908 143.128 2.25877 143.128 2.25877C143.128 2.25877 141.497 1.7517 140.414 3.89614C141.736 3.80395 143.477 3.71544 145.21 3.71544C148.734 3.71544 152.062 6.76339 158.975 8.04121C158.975 8.04121 157.057 7.83285 152.822 7.08976C148.586 6.34668 145.568 6.80765 142.966 7.56549C141.611 7.96008 139.846 8.72345 137.932 8.8304C137.187 10.7038 136.505 13.1064 136.371 15.8095C136.371 15.8095 134.547 11.7069 129.296 10.9546C129.296 10.9546 132.091 10.5286 134.224 8.00618C133.636 7.67796 133.05 7.23727 132.473 6.65829C128.689 2.87463 124.252 1.9914 122.663 1.58943C121.074 1.18747 118.516 0.8906 116.598 0.370622C116.598 0.370622 119.2 0.816844 122.187 0.816844C125.174 0.816844 125.488 0.75784 128.237 0.75784C130.986 0.75784 134.327 2.89491 136.64 3.74494C139.052 -0.837127 141.849 1.43639 141.849 1.43639H141.847ZM120.224 1.48618C124.182 2.17579 127.151 4.08791 127.151 4.08791C127.151 4.08791 125.501 3.77629 122.678 3.58268C119.855 3.38907 116.331 2.69024 114.696 0C114.696 0 116.534 0.844502 120.225 1.48618H120.224ZM160 8.24035C160 8.24035 158.451 9.79475 155.765 9.79475C153.078 9.79475 147.919 7.77938 146.038 7.92136C146.038 7.92136 149.058 7.00679 153.897 7.76463C158.735 8.52431 160 8.23851 160 8.23851V8.24035Z" fill="white"/>
</svg>
