<?xml version="1.0" encoding="UTF-8" standalone="no"?>
<!DOCTYPE svg PUBLIC "-//W3C//DTD SVG 1.1//EN" "http://www.w3.org/Graphics/SVG/1.1/DTD/svg11.dtd">
<svg width="100%" height="100%" viewBox="0 0 227 128" version="1.1" xmlns="http://www.w3.org/2000/svg" xmlns:xlink="http://www.w3.org/1999/xlink" xml:space="preserve" xmlns:serif="http://www.serif.com/" style="fill-rule:evenodd;clip-rule:evenodd;stroke-linejoin:round;stroke-miterlimit:2;">
    <g transform="matrix(1,0,0,1,-183.9,-360.4)">
        <rect x="183.9" y="360.4" width="226.8" height="127.6" style="fill:rgb(28,47,103);"/>
        <g>
            <path d="M383.5,447.2L362.1,447.2C360.6,447.2 359.4,448.4 359.4,449.9C359.4,451.4 360.6,452.6 362.1,452.6L383.5,452.6C384.5,452.6 385.3,453.4 385.3,454.4C385.3,455.4 384.5,456.2 383.5,456.2L343.1,456.2C342.1,456.2 341.3,455.4 341.3,454.4L341.3,393.5C341.3,392.5 342.1,391.7 343.1,391.7C344.1,391.7 344.9,392.5 344.9,393.5L344.9,448C344.9,451.9 348.1,455.1 352,455.1C355.9,455.1 359.1,451.9 359.1,448L359.1,430.5L381,430.5C384.9,430.5 388.1,427.3 388.1,423.4C388.1,419.5 384.9,416.3 381,416.3L359.1,416.3L359.1,401.4L382.7,401.4C386.6,401.4 389.8,398.2 389.8,394.3C389.8,390.4 386.6,387.2 382.7,387.2L353.3,387.2C351.8,387.2 350.6,388.4 350.6,389.9C350.6,391.4 351.8,392.6 353.3,392.6L382.7,392.6C383.7,392.6 384.5,393.4 384.5,394.4C384.5,395.4 383.7,396.2 382.7,396.2L356.4,396.2C354.9,396.2 353.7,397.4 353.7,398.9L353.7,419.1C353.7,420.6 354.9,421.8 356.4,421.8L381,421.8C382,421.8 382.8,422.6 382.8,423.6C382.8,424.6 382,425.4 381,425.4L356.4,425.4C354.9,425.4 353.7,426.6 353.7,428.1L353.7,448.3C353.7,449.3 352.9,450.1 351.9,450.1C350.9,450.1 350.1,449.3 350.1,448.3L350.1,393.8C350.1,389.9 346.9,386.7 343,386.7C339.1,386.7 335.9,389.9 335.9,393.8L335.9,454.7C335.9,458.6 339.1,461.8 343,461.8L383.4,461.8C387.3,461.8 390.5,458.6 390.5,454.7C390.5,450.8 387.4,447.2 383.5,447.2" style="fill:rgb(223,0,50);fill-rule:nonzero;"/>
            <path d="M224.3,392.4C224.3,389.5 226.7,387.1 229.6,387.1L240.8,387.1C254.1,387.1 264.9,397.9 264.9,411.2C264.9,424.5 254.1,435.3 240.8,435.3L237.8,435.3C233.9,435.3 230.7,432.1 230.7,428.2C230.7,424.3 233.9,421.1 237.8,421.1L240.8,421.1C246.3,421.1 250.7,416.6 250.7,411.2C250.7,405.8 246.2,401.3 240.8,401.3L233.4,401.3C231.9,401.3 230.7,400.1 230.7,398.6C230.7,397.1 231.9,395.9 233.4,395.9L240.8,395.9C249.2,395.9 256,402.7 256,411.1C256,419.5 249.2,426.3 240.8,426.3L237.8,426.3C236.8,426.3 236,427.1 236,428.1C236,429.1 236.8,429.9 237.8,429.9L240.8,429.9C251.2,429.9 259.6,421.5 259.6,411.1C259.6,400.7 251.2,392.3 240.8,392.3L231.3,392.3C230.3,392.3 229.5,393.1 229.5,394.1L229.5,454.8C229.5,458.6 226.6,461.9 222.8,462.1C218.7,462.3 215.4,459 215.4,455L215.4,393.2C215.4,392.2 214.6,391.4 213.6,391.4C212.6,391.4 211.8,392.2 211.8,393.2L211.8,459.1C211.8,460.6 210.6,461.8 209.1,461.8C207.6,461.8 206.4,460.6 206.4,459.1L206.4,393.2C206.4,389.3 209.6,386.1 213.5,386.1C217.4,386.1 220.6,389.3 220.6,393.2L220.6,455C220.6,456 221.4,456.8 222.5,456.8C223.5,456.7 224.2,455.9 224.2,454.9L224.2,392.4L224.3,392.4Z" style="fill:white;fill-rule:nonzero;"/>
            <path d="M286.9,392.4C286.9,389.5 289.3,387.1 292.2,387.1L305.1,387.1C317.6,387.1 327.8,397.3 327.8,409.8C327.8,418.7 322.7,426.4 315.3,430.1L329.1,451.3C331.2,454.6 330.3,459 327,461.1C323.7,463.2 319.3,462.3 317.2,459L293.4,422.4C292.3,420.6 293.5,418.3 295.6,418.3L305.1,418.3C309.8,418.3 313.6,414.5 313.6,409.8C313.6,405.1 309.8,401.3 305.1,401.3L296,401.3C294.5,401.3 293.3,400.1 293.3,398.6C293.3,397.1 294.5,395.9 296,395.9L305.1,395.9C312.7,395.9 318.9,402.1 318.9,409.7C318.9,417.3 312.7,423.5 305.1,423.5L300.5,423.5L321.6,456C322.1,456.8 323.2,457.1 324,456.5C324.8,456 325.1,454.9 324.5,454L308.3,429.1C307.6,428.1 308.2,426.7 309.3,426.4C316.8,424.5 322.3,417.7 322.3,409.6C322.3,400 314.5,392.2 304.9,392.2L294,392.2C293,392.2 292.2,393 292.2,394L292.2,454.7C292.2,458.5 289.3,461.8 285.5,462C281.4,462.2 278.1,458.9 278.1,454.9L278.1,393.1C278.1,392.1 277.3,391.3 276.3,391.3C275.3,391.3 274.5,392.1 274.5,393.1L274.5,459C274.5,460.5 273.3,461.7 271.8,461.7C270.3,461.7 269.1,460.5 269.1,459L269.1,393.1C269.1,389.2 272.3,386 276.2,386C280.1,386 283.3,389.2 283.3,393.1L283.3,454.9C283.3,455.9 284.1,456.7 285.2,456.7C286.2,456.6 286.9,455.8 286.9,454.8L286.9,392.4Z" style="fill:white;fill-rule:nonzero;"/>
        </g>
    </g>
</svg>
